<?xml version="1.0" encoding="iso-8859-1"?>
<!-- Generator: Adobe Illustrator 19.0.0, SVG Export Plug-In . SVG Version: 6.00 Build 0)  -->
<svg version="1.1" id="Layer_1" xmlns="http://www.w3.org/2000/svg" xmlns:xlink="http://www.w3.org/1999/xlink" x="0px" y="0px"
	 viewBox="0 0 512 512" style="enable-background:new 0 0 512 512;" xml:space="preserve">
<g id="sport">
	<g id="boxing">
	</g>
	<g id="judo">
	</g>
	<g id="tennis">
	</g>
	<g id="cup">
	</g>
	<g id="medal">
	</g>
	<g id="skateboard">
	</g>
	<g id="target_with_arrow">
	</g>
	<g id="bing_bong">
	</g>
	<g id="bowling">
	</g>
	<g id="baseball">
	</g>
	<g id="swimming">
	</g>
	<g id="football">
	</g>
	<g id="basketball">
	</g>
	<g id="gym">
	</g>
	<g id="american_football">
	</g>
</g>
<g id="devices">
	<g id="camera">
	</g>
	<g id="apple">
	</g>
	<g id="classic_camera">
	</g>
	<g id="computer">
	</g>
	<g id="ipad">
	</g>
	<g id="iphone">
	</g>
	<g id="printer">
	</g>
	<g id="mp3_player">
	</g>
	<g id="LCD_tivi">
	</g>
	<g id="retro_tivi">
	</g>
	<g id="gamepad">
	</g>
	<g id="ps_vista">
	</g>
	<g id="gameboy">
	</g>
	<g id="bombox">
	</g>
	<g id="playstation">
	</g>
	<g id="laptop">
	</g>
	<g id="smartphone">
	</g>
	<g id="projector">
	</g>
	<g id="imac">
	</g>
	<g id="camera_for_film">
	</g>
</g>
<g id="chemistry_x2F__health">
	<g id="DNA">
	</g>
	<g id="different_kind_of_tubes">
	</g>
	<g id="radioactive">
	</g>
	<g id="monitor">
	</g>
	<g id="first_aid_kit">
	</g>
	<g id="needle">
	</g>
	<g id="microscope">
	</g>
	<g id="plaster">
	</g>
	<g id="experiment">
	</g>
	<g id="pill">
	</g>
	<g id="blood">
	</g>
	<g id="molecular">
	</g>
	<g id="gen">
	</g>
	<g id="t&#xE9;t_tube">
	</g>
	<g id="stethoscope">
	</g>
</g>
<g id="others">
	<g id="book">
	</g>
	<g id="key">
	</g>
	<g id="box">
	</g>
	<g id="bell">
	</g>
	<g id="suitcase">
	</g>
	<g id="chess_game">
	</g>
	<g id="website_with_cretificate">
	</g>
	<g id="spider_with_eye">
	</g>
	<g id="imac_with__x3C__x2F__x3E_">
	</g>
	<g id="macbook_with_graph">
	</g>
	<g id="envelope_with_letter">
	</g>
	<g id="smartphone_with_mail_icon">
	</g>
	<g id="smartphone_with_setting_icon">
	</g>
	<g id="_x2C_aptop_with_setting_icon">
	</g>
	<g id="plant">
	</g>
	<g id="toaster">
	</g>
	<g id="telescope">
	</g>
	<g id="rocket">
	</g>
	<g id="bomb">
	</g>
	<g id="mail_box">
	</g>
</g>
<g id="food">
	<g id="hamburger">
	</g>
	<g id="coffee_take_away">
	</g>
	<g id="cherry">
	</g>
	<g id="strawberry">
	</g>
	<g id="hotdog">
	</g>
	<g id="sushi">
	</g>
	<g id="tea">
	</g>
	<g id="water_with_ice">
	</g>
	<g id="wine">
	</g>
	<g id="coca">
	</g>
	<g id="ice_cream1">
	</g>
	<g id="knife_&#x1B0;ith_fork">
	</g>
	<g id="meat">
	</g>
	<g id="cheese">
	</g>
	<g id="fish">
	</g>
	<g id="carrot">
	</g>
	<g id="tomato">
	</g>
	<g id="beer">
	</g>
	<g id="egg">
	</g>
	<g id="ice_cream2">
	</g>
</g>
<g id="users">
	<g id="male">
	</g>
	<g id="female">
	</g>
	<g id="male_with_chat_box">
	</g>
	<g id="male_with_mail">
	</g>
	<g id="male_with_keyboard">
	</g>
	<g id="male_with_headphone">
	</g>
	<g id="male_with_tearm">
	</g>
	<g id="male_with_plus">
	</g>
	<g id="male_with_minus">
	</g>
	<g id="female_with_magnifier">
	</g>
</g>
<g id="money_x2F_shopping_x2F_b&#xFA;iness">
	<g id="wallet">
	</g>
	<g id="coins">
	</g>
	<g id="laptop_with__x24__x24__x24_">
	</g>
	<g id="smartphone_with__x24_">
	</g>
	<g id="coin_with_clock">
	</g>
	<g id="bag_empty">
	</g>
	<g id="bag_full">
	</g>
	<g id="gift">
	</g>
	<g id="gold_bar">
	</g>
	<g id="hand_with__x24_">
	</g>
	<g id="magnifier_with__x24_">
	</g>
	<g id="megaphone_with__x24_">
	</g>
	<g id="piggy_bank">
	</g>
	<g id="calculator">
	</g>
	<g id="bag_with__x24_">
	</g>
	<g id="safe">
	</g>
	<g id="man_with__x24_">
	</g>
	<g id="credit_card">
	</g>
	<g id="tree_with__x24_">
	</g>
	<g id="balance_with__x24_">
	</g>
</g>
<g id="season">
	<g id="spring">
	</g>
	<g id="summer">
	</g>
	<g id="autumn">
	</g>
	<g id="winter">
	</g>
	<g id="cloud_with_rain">
	</g>
	<g id="sun_with_cloud">
	</g>
	<g id="cloud_with_lightning">
	</g>
	<g id="cloud_with_snow">
		<g>
			<circle style="fill:#1669AD;" cx="256" cy="256" r="256"/>
			<circle style="fill:#2A81C2;" cx="256.001" cy="256.001" r="203.503"/>
			<g>
				<path style="fill:#1669AD;" d="M387.434,153.952c0.01,0.007,0.02,0.015,0.029,0.022c-0.066-0.085-0.139-0.169-0.205-0.253
					c-0.184-0.232-0.371-0.462-0.559-0.694c-0.133-0.16-0.26-0.324-0.393-0.485c0,0-0.002,0.015-0.002,0.021
					c-3.314-3.985-7.197-7.708-11.596-11.096c0.023-0.488,0.037-0.981,0.037-1.475c0-5.959-1.75-11.509-4.754-16.172
					c-0.021-0.032-0.041-0.064-0.063-0.096c-0.697-1.072-1.459-2.096-2.283-3.066c-0.021-0.028-0.045-0.053-0.066-0.08
					c-0.389-0.454-0.791-0.897-1.207-1.328c-0.033-0.036-0.066-0.071-0.102-0.106c-0.869-0.895-1.795-1.732-2.77-2.512
					c-0.066-0.055-0.137-0.107-0.205-0.162c-0.434-0.341-0.879-0.672-1.332-0.99c-0.059-0.04-0.113-0.082-0.172-0.122
					c-0.514-0.355-1.039-0.696-1.578-1.019c-0.02-0.012-0.041-0.024-0.063-0.037c-0.49-0.293-0.992-0.57-1.5-0.835
					c-0.119-0.06-0.238-0.122-0.357-0.182c-0.469-0.237-0.943-0.462-1.426-0.675c-0.078-0.034-0.152-0.071-0.23-0.104
					c-0.559-0.241-1.125-0.463-1.699-0.669c-0.107-0.038-0.219-0.073-0.326-0.11c-0.465-0.161-0.936-0.311-1.412-0.448
					c-0.158-0.046-0.318-0.093-0.479-0.136c-0.516-0.141-1.035-0.269-1.561-0.382c-0.072-0.016-0.145-0.035-0.219-0.05
					c-0.594-0.123-1.195-0.226-1.801-0.312c-0.16-0.024-0.322-0.042-0.484-0.062c-0.465-0.06-0.934-0.107-1.404-0.146
					c-0.18-0.014-0.357-0.03-0.537-0.042c-0.621-0.038-1.246-0.064-1.875-0.064c-3.043,0-5.979,0.458-8.744,1.303
					c-8.047-8.643-19.523-14.049-32.264-14.049c-14.254,0-26.906,6.78-34.963,17.272c-0.465-0.153-0.934-0.298-1.406-0.435
					c-0.225-0.066-0.449-0.131-0.676-0.192c-0.717-0.196-1.441-0.375-2.176-0.533c-0.104-0.022-0.207-0.051-0.313-0.072
					c-0.83-0.171-1.67-0.314-2.518-0.437c-0.225-0.032-0.453-0.058-0.68-0.086c-0.65-0.082-1.307-0.15-1.967-0.204
					c-0.25-0.02-0.498-0.042-0.748-0.057c-0.869-0.055-1.742-0.091-2.625-0.091c-4.256,0-8.361,0.641-12.232,1.822
					c-11.26-12.092-27.314-19.656-45.141-19.656c-23.744,0-44.352,13.42-54.658,33.088c-2.504-0.637-5.125-0.976-7.828-0.976
					c-17.451,0-31.605,14.126-31.648,31.57c-19.625,15.995-31.5,36.853-31.5,59.666c0,0.357,0.025,0.712,0.063,1.067
					c0.012,0.106,0.029,0.213,0.045,0.321c0.035,0.253,0.08,0.507,0.135,0.759c0.023,0.115,0.049,0.228,0.078,0.341
					c0.068,0.274,0.15,0.546,0.24,0.817c0.027,0.078,0.049,0.158,0.076,0.235c0.127,0.354,0.273,0.708,0.438,1.06
					c0.021,0.044,0.047,0.089,0.068,0.133c0.148,0.307,0.311,0.61,0.486,0.914c0.051,0.088,0.105,0.175,0.158,0.263
					c0.168,0.275,0.348,0.55,0.537,0.823c0.053,0.075,0.102,0.148,0.156,0.224c0.508,0.704,1.09,1.401,1.746,2.089
					c0.029,0.033,0.063,0.064,0.094,0.096c0.301,0.313,0.619,0.624,0.951,0.934c0.055,0.052,0.111,0.104,0.168,0.155
					c0.35,0.321,0.713,0.64,1.096,0.958c0.018,0.013,0.033,0.027,0.051,0.041c0.84,0.696,1.758,1.383,2.748,2.059
					c0.023,0.016,0.045,0.029,0.068,0.044c0.473,0.323,0.965,0.642,1.471,0.959c0.029,0.018,0.059,0.037,0.088,0.055
					c1.6,0.996,3.359,1.969,5.273,2.916c0.012,0.006,0.023,0.012,0.037,0.019v-0.001c22.096,10.913,64.461,18.297,113.105,18.297
					c71.453,0,129.375-15.928,129.375-35.577c0-2.693-0.174-5.358-0.498-7.992c39.178-2.952,67.971-12.813,67.971-24.524
					C398.98,174.056,394.781,163.303,387.434,153.952z"/>
				<path style="fill:#1669AD;" d="M167.039,328.254c0-2.15-1.744-3.895-3.895-3.895c-0.707,0-1.369,0.192-1.941,0.521l-1.5-0.843
					c1.252-1.757,3.172-4.231,5.613-7.232c0.695-0.854,0.564-2.11-0.289-2.803c-0.852-0.697-2.111-0.566-2.803,0.287
					c-1.984,2.437-4.408,5.495-6.02,7.789l-2.627-1.469c1.662-2.265,4.229-5.394,5.338-6.712l1.076-1.283l-1.076-1.281
					c-1.061-1.262-3.451-4.179-5.115-6.41l2.652-1.422c1.25,1.754,3.063,4.097,5.428,7.018c0.395,0.484,0.969,0.736,1.551,0.736
					c0.441,0,0.885-0.145,1.254-0.446c0.855-0.693,0.986-1.949,0.293-2.802c-2.098-2.588-3.791-4.769-4.98-6.406l1.43-0.767
					c0.586,0.353,1.27,0.559,2.004,0.559c2.15,0,3.895-1.746,3.895-3.896s-1.744-3.894-3.895-3.894
					c-2.092,0-3.793,1.649-3.887,3.717l-1.674,0.896c-0.91-1.855-2.25-5.074-3.863-9.289c-0.393-1.028-1.543-1.542-2.574-1.15
					c-1.027,0.395-1.543,1.546-1.148,2.575c1.227,3.213,2.846,7.278,4.072,9.75l-2.664,1.427c-1.166-2.509-2.854-6.982-3.508-8.78
					l-0.572-1.573l-1.648,0.291c-1.75,0.309-5.939,0.998-8.736,1.293v-3.014c2.721-0.224,6.563-0.786,9.633-1.274
					c1.088-0.174,1.828-1.195,1.656-2.283c-0.174-1.086-1.193-1.823-2.283-1.655c-3.838,0.611-6.924,1.025-9.006,1.212v-1.781
					c1.137-0.682,1.9-1.922,1.9-3.341c0-2.153-1.744-3.895-3.895-3.895s-3.895,1.742-3.895,3.895c0,1.419,0.764,2.66,1.902,3.341
					v1.781c-1.982-0.179-4.875-0.562-8.449-1.122c-1.088-0.174-2.107,0.572-2.279,1.658c-0.17,1.088,0.572,2.109,1.66,2.279
					c3.932,0.619,6.963,1.017,9.068,1.187v3.012c-2.799-0.295-6.988-0.984-8.736-1.293l-1.648-0.291l-0.572,1.573
					c-0.631,1.736-2.225,5.955-3.381,8.507l-2.639-1.467c1.225-2.529,2.791-6.477,3.99-9.621c0.393-1.029-0.123-2.182-1.152-2.575
					c-1.027-0.395-2.18,0.124-2.574,1.152c-1.539,4.04-2.834,7.175-3.754,9.103l-1.615-0.897c-0.063-2.096-1.777-3.776-3.889-3.776
					c-2.15,0-3.895,1.745-3.895,3.895c0,2.152,1.744,3.894,3.895,3.894c0.713,0,1.379-0.193,1.951-0.527l1.49,0.826
					c-1.213,1.695-3.027,4.038-5.32,6.865c-0.693,0.854-0.563,2.109,0.291,2.805c0.371,0.299,0.814,0.445,1.256,0.445
					c0.58,0,1.156-0.252,1.551-0.738c2.547-3.139,4.463-5.624,5.73-7.427l2.631,1.463c-1.664,2.259-4.197,5.348-5.297,6.657
					l-1.076,1.281l1.076,1.283c1.164,1.388,3.941,4.774,5.584,7.054l-2.598,1.527c-1.203-1.758-3.119-4.263-5.719-7.479
					c-0.691-0.856-1.947-0.989-2.805-0.296c-0.855,0.691-0.99,1.945-0.297,2.803c2.385,2.949,4.229,5.353,5.375,6.998l-1.563,0.922
					c-0.555-0.307-1.193-0.482-1.873-0.482c-2.15,0-3.895,1.746-3.895,3.896c0,2.152,1.744,3.895,3.895,3.895
					c2.145,0,3.883-1.732,3.895-3.874l1.5-0.882c0.865,1.89,2.01,4.678,3.342,8.157c0.305,0.792,1.061,1.279,1.861,1.279
					c0.238,0,0.479-0.043,0.715-0.133c1.027-0.393,1.541-1.546,1.148-2.574c-1.473-3.842-2.68-6.77-3.613-8.76l2.596-1.527
					c1.135,2.574,2.586,6.424,3.182,8.061l0.572,1.572l1.648-0.291c1.748-0.308,5.938-0.998,8.736-1.293v3.014
					c-2.186,0.179-5.363,0.597-9.508,1.254c-1.088,0.174-1.828,1.194-1.656,2.283c0.174,1.087,1.191,1.832,2.281,1.656
					c3.779-0.6,6.822-1.005,8.883-1.191v1.782c-1.139,0.681-1.902,1.919-1.902,3.341c0,2.152,1.744,3.895,3.895,3.895
					s3.895-1.743,3.895-3.895c0-1.422-0.764-2.66-1.9-3.341v-1.782c2.08,0.186,5.164,0.6,8.998,1.21
					c0.107,0.018,0.213,0.025,0.316,0.025c0.963,0,1.811-0.699,1.967-1.68c0.174-1.088-0.568-2.108-1.656-2.283
					c-4.201-0.669-7.42-1.095-9.625-1.274v-3.014c2.797,0.295,6.986,0.985,8.736,1.293l1.648,0.291l0.572-1.572
					c0.625-1.721,2.197-5.889,3.352-8.445l2.633,1.474c-1.205,2.505-2.734,6.354-3.908,9.426c-0.395,1.029,0.121,2.182,1.15,2.576
					c0.234,0.089,0.475,0.131,0.711,0.131c0.805,0,1.559-0.489,1.863-1.283c1.498-3.92,2.762-6.982,3.668-8.896l1.602,0.896
					c0.055,2.103,1.773,3.789,3.889,3.789C165.295,332.148,167.039,330.405,167.039,328.254z M120.59,318.918
					c-1.428-2.018-3.604-4.709-4.916-6.305c1.244-1.511,3.266-4.011,4.688-5.986l3.762,2.09c-0.428,1.22-0.664,2.531-0.664,3.896
					c0,1.469,0.271,2.872,0.762,4.168L120.59,318.918z M133.242,328.461c-2.451,0.235-5.789,0.761-7.789,1.094
					c-0.697-1.866-1.881-4.94-2.891-7.17l3.684-2.168c1.754,2.07,4.205,3.524,6.996,4V328.461z M133.242,301.01
					c-2.889,0.493-5.418,2.035-7.18,4.223l-3.664-2.036c1.045-2.25,2.318-5.558,3.055-7.523c2,0.333,5.338,0.858,7.789,1.092V301.01
					z M137.229,296.766c2.451-0.233,5.787-0.759,7.787-1.092c0.76,2.029,2.096,5.495,3.156,7.743l-3.654,1.958
					c-1.766-2.264-4.34-3.862-7.289-4.365V296.766z M145.016,329.555c-2-0.333-5.336-0.859-7.787-1.094v-4.244
					c2.875-0.491,5.393-2.02,7.154-4.192l3.666,2.053C147.008,324.327,145.748,327.604,145.016,329.555z M150.076,318.644
					l-3.742-2.096c0.436-1.231,0.676-2.555,0.676-3.936c0-1.303-0.215-2.553-0.605-3.726l3.846-2.062
					c1.414,1.94,3.344,4.326,4.547,5.788C153.543,314.137,151.5,316.662,150.076,318.644z"/>
				<path style="fill:#1669AD;" d="M214.934,268.155c-0.701-0.27-1.488,0.086-1.758,0.789c-1.053,2.758-1.938,4.901-2.564,6.218
					l-1.104-0.612c-0.043-1.432-1.215-2.58-2.656-2.58c-1.469,0-2.662,1.192-2.662,2.661c0,1.47,1.193,2.66,2.662,2.66
					c0.486,0,0.941-0.13,1.334-0.359l1.018,0.564c-0.83,1.158-2.068,2.758-3.635,4.689c-0.475,0.584-0.385,1.442,0.199,1.916
					c0.252,0.203,0.555,0.305,0.857,0.305c0.396,0,0.789-0.172,1.059-0.504c1.74-2.145,3.049-3.841,3.916-5.074l1.795,1
					c-1.137,1.543-2.865,3.654-3.617,4.547l-0.736,0.876l0.736,0.877c0.797,0.945,2.691,3.26,3.814,4.816l-1.775,1.043
					c-0.82-1.199-2.131-2.91-3.906-5.107c-0.473-0.585-1.33-0.676-1.914-0.203c-0.586,0.472-0.678,1.33-0.203,1.916
					c1.627,2.013,2.887,3.656,3.672,4.779l-1.066,0.631c-0.381-0.208-0.816-0.328-1.281-0.328c-1.469,0-2.66,1.191-2.66,2.66
					s1.191,2.66,2.66,2.66c1.465,0,2.652-1.183,2.66-2.646l1.025-0.602c0.59,1.289,1.373,3.196,2.283,5.572
					c0.209,0.541,0.725,0.874,1.271,0.874c0.162,0,0.326-0.03,0.488-0.09c0.701-0.27,1.053-1.056,0.783-1.759
					c-1.006-2.624-1.83-4.625-2.467-5.984l1.771-1.043c0.775,1.758,1.768,4.387,2.174,5.506l0.391,1.075l1.125-0.2
					c1.197-0.211,4.059-0.681,5.969-0.882v2.059c-1.49,0.123-3.662,0.41-6.494,0.859c-0.742,0.117-1.248,0.815-1.131,1.559
					c0.119,0.742,0.814,1.25,1.559,1.131c2.582-0.41,4.66-0.688,6.066-0.814v1.217c-0.775,0.465-1.297,1.313-1.297,2.283
					c0,1.471,1.189,2.662,2.66,2.662c1.469,0,2.66-1.191,2.66-2.662c0-0.971-0.521-1.818-1.299-2.283v-1.217
					c1.422,0.127,3.529,0.41,6.148,0.828c0.072,0.011,0.145,0.016,0.215,0.016c0.656,0,1.238-0.477,1.342-1.146
					c0.121-0.744-0.387-1.442-1.129-1.558c-2.871-0.458-5.07-0.75-6.576-0.874v-2.059c1.91,0.201,4.773,0.671,5.969,0.882l1.125,0.2
					l0.391-1.075c0.428-1.173,1.502-4.021,2.291-5.77l1.799,1.008c-0.824,1.712-1.867,4.341-2.67,6.439
					c-0.27,0.703,0.082,1.49,0.787,1.76c0.158,0.06,0.322,0.089,0.484,0.089c0.549,0,1.064-0.334,1.273-0.877
					c1.021-2.677,1.887-4.77,2.506-6.078l1.094,0.613c0.037,1.436,1.211,2.59,2.654,2.59c1.471,0,2.662-1.194,2.662-2.662
					c0-1.469-1.191-2.66-2.662-2.66c-0.482,0-0.934,0.13-1.324,0.355l-1.025-0.575c0.855-1.201,2.166-2.891,3.836-4.942
					c0.475-0.584,0.385-1.441-0.199-1.916c-0.582-0.475-1.441-0.386-1.914,0.195c-1.355,1.667-3.012,3.754-4.113,5.322l-1.793-1.004
					c1.135-1.549,2.889-3.684,3.646-4.584l0.734-0.877l-0.734-0.876c-0.725-0.862-2.359-2.854-3.494-4.379l1.813-0.97
					c0.854,1.197,2.09,2.798,3.707,4.792c0.27,0.332,0.662,0.504,1.061,0.504c0.299,0,0.602-0.1,0.855-0.305
					c0.586-0.473,0.674-1.33,0.199-1.914c-1.434-1.77-2.59-3.258-3.402-4.376l0.977-0.524c0.402,0.241,0.869,0.381,1.369,0.381
					c1.469,0,2.66-1.191,2.66-2.66s-1.191-2.66-2.66-2.66c-1.43,0-2.59,1.125-2.654,2.537l-1.145,0.614
					c-0.623-1.268-1.537-3.468-2.639-6.346c-0.27-0.701-1.055-1.053-1.758-0.785c-0.703,0.27-1.055,1.057-0.785,1.758
					c0.838,2.195,1.945,4.973,2.781,6.66l-1.82,0.975c-0.797-1.713-1.947-4.768-2.396-5.998l-0.391-1.075l-1.125,0.199
					c-1.195,0.211-4.059,0.682-5.969,0.883v-2.058c1.859-0.153,4.482-0.538,6.582-0.87c0.74-0.119,1.248-0.818,1.129-1.561
					c-0.117-0.744-0.814-1.246-1.559-1.13c-2.621,0.418-4.73,0.701-6.152,0.827v-1.215c0.777-0.465,1.299-1.313,1.299-2.281
					c0-1.471-1.191-2.663-2.66-2.663c-1.471,0-2.66,1.192-2.66,2.663c0,0.968,0.521,1.816,1.297,2.281v1.215
					c-1.354-0.12-3.328-0.381-5.77-0.766c-0.744-0.12-1.441,0.392-1.559,1.134s0.393,1.439,1.135,1.557
					c2.686,0.422,4.756,0.694,6.193,0.811v2.057c-1.91-0.201-4.771-0.672-5.969-0.883l-1.125-0.199l-0.391,1.075
					c-0.432,1.187-1.52,4.07-2.309,5.812l-1.803-1.002c0.836-1.728,1.906-4.423,2.727-6.572
					C215.99,269.212,215.637,268.425,214.934,268.155z M236.213,281.294c0.965,1.328,2.285,2.957,3.105,3.957
					c-0.855,1.039-2.252,2.766-3.225,4.119l-2.557-1.432c0.297-0.842,0.463-1.745,0.463-2.688c0-0.891-0.148-1.746-0.416-2.547
					L236.213,281.294z M227.316,274.423c1.674-0.158,3.955-0.52,5.32-0.746c0.52,1.387,1.432,3.754,2.156,5.289l-2.496,1.338
					c-1.207-1.544-2.965-2.637-4.98-2.982L227.316,274.423L227.316,274.423z M227.316,293.177c1.965-0.336,3.686-1.381,4.889-2.864
					l2.504,1.402c-0.711,1.535-1.572,3.773-2.072,5.107c-1.365-0.228-3.646-0.586-5.32-0.748L227.316,293.177L227.316,293.177z
					 M224.592,296.076c-1.674,0.162-3.953,0.52-5.32,0.748c-0.475-1.275-1.283-3.373-1.975-4.898l2.518-1.481
					c1.197,1.415,2.871,2.409,4.777,2.733L224.592,296.076L224.592,296.076z M219.271,273.677c1.367,0.226,3.646,0.587,5.32,0.746
					v2.898c-1.973,0.338-3.699,1.393-4.904,2.887l-2.502-1.391C217.898,277.28,218.77,275.02,219.271,273.677z M215.795,281.16
					l2.568,1.429c-0.293,0.834-0.453,1.729-0.453,2.662c0,1.002,0.186,1.961,0.52,2.846l-2.48,1.461
					c-0.975-1.379-2.461-3.219-3.359-4.307C213.441,284.216,214.822,282.509,215.795,281.16z"/>
				<path style="fill:#1669AD;" d="M257.543,393.439c3.332,0,6.033-2.705,6.033-6.037c0-3.331-2.701-6.033-6.033-6.033
					c-3.242,0-5.875,2.555-6.021,5.758l-2.592,1.389c-1.414-2.875-3.488-7.863-5.986-14.393c-0.609-1.594-2.393-2.391-3.988-1.781
					c-1.596,0.609-2.391,2.396-1.783,3.99c1.904,4.977,4.412,11.276,6.313,15.104l-4.129,2.212
					c-1.807-3.89-4.42-10.818-5.436-13.604l-0.887-2.436l-2.553,0.451c-2.711,0.478-9.201,1.544-13.537,2.001v-4.669
					c4.217-0.349,10.168-1.217,14.926-1.974c1.686-0.271,2.834-1.853,2.564-3.539c-0.268-1.686-1.848-2.825-3.537-2.564
					c-5.945,0.948-10.727,1.587-13.953,1.877v-2.758c1.762-1.055,2.947-2.976,2.947-5.178c0-3.334-2.703-6.034-6.035-6.034
					s-6.035,2.7-6.035,6.034c0,2.202,1.184,4.123,2.945,5.178v2.758c-3.068-0.276-7.551-0.867-13.088-1.739
					c-1.688-0.268-3.266,0.887-3.533,2.571c-0.266,1.686,0.887,3.267,2.572,3.531c6.092,0.958,10.789,1.571,14.049,1.837v4.668
					c-4.336-0.457-10.826-1.523-13.535-2.001l-2.555-0.451l-0.887,2.436c-0.977,2.688-3.443,9.228-5.236,13.181l-4.088-2.274
					c1.896-3.918,4.322-10.033,6.182-14.906c0.607-1.593-0.191-3.379-1.787-3.988c-1.59-0.611-3.377,0.192-3.986,1.785
					c-2.387,6.257-4.393,11.117-5.816,14.103l-2.504-1.388c-0.096-3.248-2.754-5.852-6.023-5.852c-3.334,0-6.037,2.704-6.037,6.036
					c0,3.334,2.703,6.033,6.037,6.033c1.104,0,2.135-0.301,3.023-0.816l2.309,1.279c-1.879,2.626-4.689,6.257-8.242,10.636
					c-1.078,1.324-0.873,3.27,0.451,4.347c0.572,0.462,1.26,0.69,1.943,0.69c0.9,0,1.791-0.393,2.402-1.145
					c3.945-4.863,6.916-8.713,8.879-11.507l4.076,2.268c-2.578,3.498-6.504,8.287-8.207,10.314l-1.668,1.984l1.668,1.99
					c1.805,2.147,6.107,7.395,8.652,10.926l-4.023,2.369c-1.865-2.725-4.832-6.605-8.863-11.588
					c-1.07-1.328-3.016-1.533-4.342-0.458c-1.328,1.072-1.535,3.015-0.461,4.342c3.693,4.57,6.551,8.294,8.328,10.844l-2.422,1.427
					c-0.859-0.474-1.85-0.746-2.902-0.746c-3.334,0-6.035,2.704-6.035,6.036c0,3.334,2.701,6.035,6.035,6.035
					c3.322,0,6.016-2.684,6.035-6.002l2.322-1.367c1.342,2.926,3.115,7.248,5.18,12.637c0.471,1.227,1.641,1.982,2.885,1.982
					c0.367,0,0.74-0.065,1.105-0.205c1.594-0.611,2.389-2.397,1.779-3.988c-2.281-5.954-4.152-10.491-5.598-13.575l4.02-2.366
					c1.76,3.986,4.01,9.953,4.93,12.49l0.887,2.435l2.555-0.45c2.709-0.48,9.199-1.547,13.535-2.005v4.67
					c-3.383,0.276-8.309,0.926-14.729,1.945c-1.686,0.268-2.834,1.852-2.566,3.538c0.268,1.684,1.846,2.836,3.535,2.565
					c5.855-0.932,10.568-1.56,13.76-1.846v2.761c-1.762,1.054-2.945,2.973-2.945,5.176c0,3.334,2.703,6.035,6.035,6.035
					s6.035-2.701,6.035-6.035c0-2.203-1.186-4.122-2.947-5.176v-2.761c3.225,0.289,8.004,0.929,13.943,1.876
					c0.164,0.025,0.328,0.037,0.49,0.037c1.49,0,2.805-1.084,3.047-2.602c0.268-1.687-0.881-3.268-2.564-3.537
					c-6.512-1.038-11.5-1.697-14.916-1.976v-4.67c4.336,0.458,10.826,1.525,13.537,2.005l2.553,0.45l0.887-2.435
					c0.971-2.666,3.406-9.125,5.195-13.085l4.078,2.285c-1.867,3.88-4.236,9.844-6.055,14.605c-0.611,1.593,0.188,3.381,1.783,3.989
					c0.361,0.14,0.734,0.203,1.102,0.203c1.244,0,2.414-0.755,2.885-1.987c2.32-6.072,4.281-10.818,5.684-13.783l2.48,1.389
					c0.088,3.257,2.75,5.872,6.025,5.872c3.334,0,6.035-2.702,6.035-6.035c0-3.332-2.701-6.035-6.035-6.035
					c-1.096,0-2.119,0.298-3.006,0.808l-2.326-1.305c1.941-2.722,4.916-6.555,8.697-11.207c1.078-1.322,0.877-3.268-0.447-4.345
					c-1.32-1.078-3.27-0.878-4.344,0.446c-3.074,3.777-6.828,8.512-9.324,12.069l-4.072-2.277c2.576-3.509,6.555-8.358,8.27-10.399
					l1.668-1.99l-1.668-1.984c-1.641-1.956-5.346-6.475-7.924-9.932l4.109-2.204c1.938,2.718,4.744,6.348,8.41,10.872
					c0.611,0.752,1.502,1.142,2.402,1.142c0.684,0,1.371-0.225,1.943-0.69c1.324-1.074,1.529-3.019,0.451-4.343
					c-3.248-4.009-5.871-7.388-7.715-9.926l2.217-1.188C255.348,393.12,256.404,393.439,257.543,393.439z M191.162,420.595
					c-2.211-3.127-5.582-7.297-7.615-9.77c1.928-2.342,5.059-6.214,7.264-9.276l5.828,3.238c-0.664,1.891-1.027,3.923-1.027,6.038
					c0,2.275,0.42,4.451,1.178,6.458L191.162,420.595z M210.766,435.382c-3.797,0.364-8.967,1.178-12.064,1.694
					c-1.082-2.891-2.916-7.653-4.482-11.11l5.709-3.36c2.717,3.209,6.518,5.462,10.838,6.198v6.578H210.766z M210.766,392.848
					c-4.475,0.763-8.393,3.153-11.123,6.543l-5.678-3.156c1.619-3.484,3.594-8.61,4.736-11.656
					c3.098,0.516,8.268,1.331,12.064,1.691L210.766,392.848L210.766,392.848z M216.943,386.27c3.799-0.361,8.967-1.175,12.066-1.691
					c1.178,3.145,3.246,8.512,4.891,11.997l-5.662,3.035c-2.738-3.506-6.725-5.984-11.295-6.763V386.27z M229.01,437.076
					c-3.1-0.516-8.268-1.33-12.066-1.694v-6.578c4.455-0.757,8.357-3.128,11.086-6.492l5.68,3.18
					C232.096,428.975,230.143,434.051,229.01,437.076z M244.164,410.826c-1.941,2.36-5.107,6.273-7.314,9.345l-5.797-3.248
					c0.676-1.907,1.047-3.958,1.047-6.097c0-2.017-0.332-3.956-0.938-5.773l5.959-3.194
					C239.313,404.866,242.301,408.561,244.164,410.826z"/>
				<path style="fill:#1669AD;" d="M363.852,291.447c2.68,0,4.85-2.172,4.85-4.852c0-2.677-2.17-4.849-4.85-4.849
					c-2.604,0-4.721,2.054-4.838,4.627l-2.084,1.117c-1.135-2.311-2.803-6.319-4.811-11.566c-0.488-1.281-1.922-1.922-3.205-1.432
					c-1.281,0.49-1.92,1.925-1.432,3.207c1.529,4,3.545,9.061,5.072,12.139l-3.318,1.777c-1.451-3.125-3.553-8.694-4.369-10.934
					l-0.711-1.957l-2.053,0.361c-2.178,0.385-7.395,1.241-10.879,1.609v-3.752c3.389-0.281,8.172-0.978,11.996-1.587
					c1.354-0.217,2.275-1.488,2.061-2.844c-0.215-1.353-1.486-2.269-2.844-2.061c-4.777,0.761-8.619,1.277-11.213,1.509v-2.215
					c1.416-0.848,2.369-2.393,2.369-4.161c0-2.68-2.174-4.852-4.85-4.852c-2.68,0-4.852,2.172-4.852,4.852
					c0,1.768,0.953,3.313,2.367,4.161v2.215c-2.465-0.222-6.068-0.697-10.52-1.397c-1.354-0.215-2.623,0.713-2.838,2.068
					c-0.213,1.353,0.713,2.623,2.068,2.836c4.895,0.77,8.67,1.264,11.289,1.476v3.752c-3.482-0.368-8.701-1.224-10.877-1.609
					l-2.053-0.361l-0.713,1.957c-0.785,2.161-2.768,7.416-4.209,10.592l-3.285-1.827c1.525-3.148,3.475-8.063,4.969-11.979
					c0.488-1.28-0.154-2.716-1.436-3.204c-1.279-0.492-2.715,0.154-3.205,1.436c-1.918,5.028-3.531,8.932-4.674,11.332l-2.012-1.115
					c-0.078-2.611-2.213-4.703-4.842-4.703c-2.678,0-4.852,2.171-4.852,4.85c0,2.68,2.174,4.85,4.852,4.85
					c0.887,0,1.715-0.241,2.432-0.657l1.854,1.029c-1.51,2.11-3.77,5.027-6.625,8.547c-0.865,1.064-0.701,2.628,0.363,3.494
					c0.461,0.371,1.014,0.554,1.563,0.554c0.723,0,1.439-0.315,1.93-0.92c3.172-3.907,5.559-7.001,7.137-9.246l3.275,1.82
					c-2.072,2.813-5.227,6.66-6.596,8.292l-1.34,1.593l1.34,1.6c1.451,1.726,4.908,5.944,6.955,8.781l-3.234,1.902
					c-1.5-2.188-3.885-5.306-7.123-9.31c-0.861-1.069-2.424-1.232-3.49-0.372c-1.066,0.863-1.232,2.423-0.371,3.491
					c2.971,3.673,5.266,6.666,6.693,8.714l-1.945,1.147c-0.691-0.379-1.486-0.598-2.332-0.598c-2.68,0-4.85,2.173-4.85,4.852
					s2.17,4.85,4.85,4.85c2.67,0,4.834-2.159,4.85-4.825l1.867-1.1c1.078,2.352,2.504,5.827,4.162,10.157
					c0.377,0.985,1.318,1.593,2.318,1.593c0.295,0,0.594-0.053,0.889-0.165c1.279-0.49,1.92-1.926,1.43-3.206
					c-1.834-4.783-3.338-8.43-4.498-10.909l3.23-1.901c1.412,3.204,3.221,7.999,3.961,10.038l0.713,1.957l2.053-0.363
					c2.176-0.383,7.395-1.242,10.877-1.609v3.752c-2.719,0.222-6.678,0.744-11.836,1.563c-1.355,0.215-2.279,1.488-2.063,2.843
					c0.215,1.354,1.482,2.279,2.84,2.06c4.707-0.748,8.494-1.251,11.059-1.482v2.219c-1.414,0.847-2.367,2.389-2.367,4.161
					c0,2.677,2.172,4.85,4.852,4.85c2.676,0,4.85-2.172,4.85-4.85c0-1.771-0.953-3.313-2.369-4.161v-2.219
					c2.592,0.231,6.432,0.747,11.207,1.508c0.131,0.02,0.262,0.031,0.395,0.031c1.195,0,2.252-0.872,2.445-2.093
					c0.217-1.354-0.707-2.625-2.061-2.842c-5.232-0.834-9.242-1.363-11.986-1.587v-3.752c3.484,0.367,8.701,1.226,10.879,1.609
					l2.053,0.363l0.711-1.957c0.781-2.144,2.738-7.334,4.176-10.517l3.277,1.837c-1.5,3.117-3.404,7.912-4.867,11.736
					c-0.49,1.282,0.152,2.717,1.434,3.207c0.291,0.111,0.592,0.162,0.887,0.162c0.998,0,1.939-0.606,2.318-1.598
					c1.865-4.88,3.439-8.693,4.566-11.076l1.994,1.117c0.07,2.618,2.209,4.718,4.842,4.718c2.68,0,4.85-2.173,4.85-4.85
					c0-2.678-2.17-4.85-4.85-4.85c-0.881,0-1.703,0.24-2.416,0.647l-1.869-1.046c1.561-2.189,3.951-5.27,6.99-9.008
					c0.867-1.062,0.705-2.625-0.359-3.49c-1.063-0.868-2.629-0.707-3.49,0.357c-2.471,3.036-5.488,6.841-7.494,9.699l-3.271-1.83
					c2.07-2.821,5.266-6.717,6.645-8.358l1.342-1.6l-1.342-1.593c-1.318-1.573-4.297-5.204-6.367-7.982l3.303-1.772
					c1.557,2.186,3.813,5.102,6.758,8.739c0.49,0.604,1.207,0.918,1.932,0.918c0.549,0,1.1-0.182,1.561-0.554
					c1.066-0.864,1.229-2.427,0.363-3.491c-2.611-3.222-4.719-5.937-6.199-7.977l1.779-0.955
					C362.088,291.19,362.938,291.447,363.852,291.447z M310.506,313.27c-1.777-2.513-4.486-5.863-6.121-7.852
					c1.551-1.881,4.066-4.994,5.838-7.454l4.684,2.603c-0.533,1.52-0.826,3.152-0.826,4.852c0,1.83,0.338,3.579,0.949,5.19
					L310.506,313.27z M326.26,325.153c-3.051,0.293-7.207,0.948-9.695,1.362c-0.869-2.322-2.344-6.149-3.602-8.928l4.586-2.7
					c2.186,2.579,5.238,4.39,8.711,4.981V325.153z M326.26,290.972c-3.596,0.613-6.744,2.535-8.938,5.259l-4.563-2.537
					c1.301-2.8,2.887-6.919,3.805-9.367c2.488,0.415,6.645,1.069,9.695,1.359L326.26,290.972L326.26,290.972z M331.225,285.686
					c3.053-0.291,7.207-0.945,9.697-1.359c0.945,2.526,2.609,6.84,3.932,9.641l-4.551,2.438c-2.201-2.817-5.406-4.809-9.078-5.435
					V285.686z M340.922,326.515c-2.49-0.414-6.645-1.069-9.697-1.362v-5.285c3.58-0.609,6.717-2.514,8.908-5.219l4.564,2.557
					C343.402,320.005,341.834,324.085,340.922,326.515z M353.1,305.419c-1.559,1.898-4.104,5.043-5.877,7.512l-4.658-2.612
					c0.543-1.533,0.842-3.18,0.842-4.9c0-1.62-0.268-3.18-0.756-4.639l4.789-2.567C349.201,300.63,351.604,303.6,353.1,305.419z"/>
			</g>
			<g>
				<path style="fill:#323232;" d="M392.043,120.742c0.023-0.489,0.037-0.981,0.037-1.476c0-16.517-13.391-29.906-29.906-29.906
					c-3.043,0-5.977,0.459-8.744,1.303c-8.047-8.643-19.523-14.049-32.264-14.049c-16.971,0-31.701,9.592-39.066,23.649
					c-1.791-0.455-3.664-0.698-5.596-0.698c-12.475,0-22.59,10.098-22.621,22.565c-14.027,11.434-22.516,26.341-22.516,42.647
					c0,14.044,41.402,25.429,92.473,25.429c51.072,0,92.473-11.385,92.473-25.429C416.313,147.802,407.113,132.344,392.043,120.742z
					"/>
				<g>
					<path style="fill:#E8E9EC;" d="M403.639,131.815c-0.006,0.169-0.004,0.341-0.014,0.51c0.395,0.305,0.783,0.612,1.17,0.921
						C404.418,132.766,404.033,132.29,403.639,131.815z"/>
					<path style="fill:#494A4A;" d="M242.951,176.361c0-16.305,8.488-31.213,22.516-42.646
						c0.031-12.467,10.146-22.565,22.621-22.565c1.93,0,3.805,0.243,5.594,0.698c7.367-14.057,22.097-23.65,39.068-23.65
						c12.74,0,24.217,5.406,32.264,14.049c2.768-0.845,5.701-1.303,8.744-1.303c5.281,0,10.24,1.375,14.545,3.778
						c-5.109-9.162-14.893-15.362-26.129-15.362c-3.043,0-5.977,0.459-8.744,1.303c-8.047-8.643-19.523-14.049-32.264-14.049
						c-16.971,0-31.701,9.592-39.066,23.649c-1.791-0.455-3.664-0.698-5.596-0.698c-12.475,0-22.59,10.098-22.621,22.565
						c-14.027,11.434-22.516,26.341-22.516,42.647c0,4.482,4.225,8.694,11.631,12.351
						C242.971,176.874,242.951,176.618,242.951,176.361z"/>
				</g>
			</g>
			<g>
				<path style="fill:#323232;" d="M314.885,135.685c0.033-0.684,0.053-1.371,0.053-2.064c0-23.107-18.732-41.84-41.84-41.84
					c-4.258,0-8.363,0.641-12.234,1.823c-11.258-12.091-27.314-19.657-45.139-19.657c-23.744,0-44.352,13.42-54.658,33.088
					c-2.504-0.637-5.127-0.976-7.828-0.976c-17.453,0-31.605,14.126-31.65,31.57c-19.625,15.995-31.498,36.853-31.498,59.667
					c0,19.648,57.924,35.577,129.375,35.577c71.453,0,129.377-15.928,129.377-35.577
					C348.842,173.545,335.971,151.917,314.885,135.685z"/>
				<g>
					<path style="fill:#E8E9EC;" d="M331.109,151.179c-0.008,0.237-0.006,0.476-0.018,0.713c0.551,0.425,1.094,0.856,1.635,1.289
						C332.199,152.508,331.66,151.841,331.109,151.179z"/>
					<path style="fill:#494A4A;" d="M106.297,213.501c0-22.813,11.873-43.67,31.498-59.666c0.045-17.443,14.197-31.57,31.648-31.57
						c2.703,0,5.326,0.34,7.828,0.977c10.309-19.666,30.916-33.089,54.66-33.089c17.824,0,33.881,7.565,45.139,19.657
						c3.871-1.182,7.977-1.823,12.234-1.823c7.389,0,14.324,1.922,20.35,5.285c-7.15-12.818-20.838-21.492-36.557-21.492
						c-4.258,0-8.363,0.641-12.234,1.823c-11.258-12.091-27.314-19.657-45.139-19.657c-23.744,0-44.352,13.42-54.658,33.088
						c-2.504-0.637-5.127-0.976-7.828-0.976c-17.453,0-31.605,14.126-31.65,31.57c-19.625,15.995-31.498,36.853-31.498,59.667
						c0,6.271,5.91,12.164,16.27,17.281C106.322,214.218,106.297,213.86,106.297,213.501z"/>
				</g>
			</g>
			<g>
				<path style="fill:#CDCCCA;" d="M392.043,120.742c0.023-0.489,0.037-0.981,0.037-1.476c0-16.517-13.391-29.906-29.906-29.906
					c-3.043,0-5.977,0.459-8.744,1.303c-8.047-8.643-19.523-14.049-32.264-14.049c-16.971,0-31.701,9.592-39.066,23.649
					c-1.791-0.455-3.664-0.698-5.596-0.698c-12.475,0-22.59,10.098-22.621,22.565c-14.027,11.434-22.516,26.341-22.516,42.647
					c0,14.044,41.402,25.429,92.473,25.429c51.072,0,92.473-11.385,92.473-25.429C416.313,147.802,407.113,132.344,392.043,120.742z
					"/>
				<g>
					<path style="fill:#E8E9EC;" d="M242.951,176.361c0-16.305,8.488-31.213,22.516-42.646
						c0.031-12.467,10.146-22.565,22.621-22.565c1.93,0,3.805,0.243,5.594,0.698c7.367-14.057,22.097-23.65,39.068-23.65
						c12.74,0,24.217,5.406,32.264,14.049c2.768-0.845,5.701-1.303,8.744-1.303c5.281,0,10.24,1.375,14.545,3.778
						c-5.109-9.162-14.893-15.362-26.129-15.362c-3.043,0-5.977,0.459-8.744,1.303c-8.047-8.643-19.523-14.049-32.264-14.049
						c-16.971,0-31.701,9.592-39.066,23.649c-1.791-0.455-3.664-0.698-5.596-0.698c-12.475,0-22.59,10.098-22.621,22.565
						c-14.027,11.434-22.516,26.341-22.516,42.647c0,4.482,4.225,8.694,11.631,12.351
						C242.971,176.874,242.951,176.618,242.951,176.361z"/>
				</g>
			</g>
			<g>
				<path style="fill:#CDCCCA;" d="M314.885,135.685c0.033-0.684,0.053-1.371,0.053-2.064c0-23.107-18.732-41.84-41.84-41.84
					c-4.258,0-8.363,0.641-12.234,1.823c-11.258-12.091-27.314-19.657-45.139-19.657c-23.744,0-44.352,13.42-54.658,33.088
					c-2.504-0.637-5.127-0.976-7.828-0.976c-17.453,0-31.605,14.126-31.65,31.57c-19.625,15.995-31.498,36.853-31.498,59.667
					c0,19.648,57.924,35.577,129.375,35.577c71.453,0,129.377-15.928,129.377-35.577
					C348.842,173.545,335.971,151.917,314.885,135.685z"/>
				<g>
					<path style="fill:#E8E9EC;" d="M106.297,213.501c0-22.813,11.873-43.67,31.498-59.666c0.045-17.443,14.197-31.57,31.648-31.57
						c2.703,0,5.326,0.34,7.828,0.977c10.309-19.666,30.916-33.089,54.66-33.089c17.824,0,33.881,7.565,45.139,19.657
						c3.871-1.182,7.977-1.823,12.234-1.823c7.389,0,14.324,1.922,20.35,5.285c-7.15-12.818-20.838-21.492-36.557-21.492
						c-4.258,0-8.363,0.641-12.234,1.823c-11.258-12.091-27.314-19.657-45.139-19.657c-23.744,0-44.352,13.42-54.658,33.088
						c-2.504-0.637-5.127-0.976-7.828-0.976c-17.453,0-31.605,14.126-31.65,31.57c-19.625,15.995-31.498,36.853-31.498,59.667
						c0,6.271,5.91,12.164,16.27,17.281C106.322,214.218,106.297,213.86,106.297,213.501z"/>
				</g>
			</g>
			<path style="fill:#E8E9EC;" d="M180.477,303.632c-0.707,0-1.367,0.194-1.939,0.521l-1.502-0.842
				c1.254-1.757,3.174-4.231,5.615-7.232c0.693-0.854,0.564-2.109-0.289-2.803c-0.854-0.697-2.111-0.566-2.805,0.287
				c-1.982,2.438-4.406,5.494-6.018,7.789l-2.627-1.47c1.662-2.265,4.229-5.394,5.336-6.712l1.076-1.283l-1.076-1.281
				c-1.059-1.261-3.451-4.179-5.113-6.411l2.652-1.421c1.25,1.754,3.061,4.098,5.428,7.018c0.395,0.485,0.969,0.737,1.551,0.737
				c0.439,0,0.883-0.145,1.254-0.446c0.855-0.693,0.986-1.948,0.291-2.803c-2.098-2.587-3.789-4.768-4.979-6.406l1.43-0.767
				c0.586,0.353,1.27,0.559,2.002,0.559c2.152,0,3.895-1.745,3.895-3.896s-1.742-3.894-3.895-3.894
				c-2.092,0-3.791,1.649-3.887,3.717l-1.672,0.896c-0.912-1.855-2.252-5.074-3.863-9.289c-0.393-1.028-1.543-1.543-2.574-1.15
				c-1.029,0.395-1.543,1.547-1.15,2.575c1.229,3.213,2.848,7.278,4.074,9.749l-2.666,1.428c-1.164-2.51-2.852-6.982-3.508-8.78
				l-0.572-1.574l-1.646,0.292c-1.75,0.309-5.939,0.998-8.736,1.292v-3.013c2.721-0.224,6.563-0.786,9.633-1.273
				c1.086-0.175,1.828-1.197,1.654-2.285c-0.172-1.087-1.193-1.823-2.283-1.655c-3.838,0.611-6.922,1.026-9.004,1.211v-1.78
				c1.137-0.681,1.9-1.921,1.9-3.341c0-2.152-1.744-3.895-3.895-3.895s-3.895,1.743-3.895,3.895c0,1.42,0.764,2.66,1.9,3.341v1.78
				c-1.98-0.178-4.873-0.561-8.447-1.121c-1.088-0.174-2.107,0.572-2.281,1.659c-0.17,1.088,0.574,2.109,1.662,2.278
				c3.932,0.619,6.963,1.016,9.066,1.187v3.012c-2.799-0.295-6.988-0.983-8.736-1.292l-1.648-0.292l-0.572,1.574
				c-0.631,1.735-2.223,5.955-3.381,8.507l-2.637-1.467c1.225-2.53,2.789-6.477,3.99-9.622c0.393-1.027-0.123-2.181-1.154-2.575
				c-1.025-0.394-2.18,0.124-2.572,1.153c-1.541,4.039-2.836,7.175-3.754,9.103l-1.615-0.896c-0.063-2.096-1.779-3.777-3.889-3.777
				c-2.152,0-3.896,1.745-3.896,3.896c0,2.152,1.744,3.894,3.896,3.894c0.711,0,1.377-0.192,1.951-0.526l1.49,0.826
				c-1.213,1.695-3.027,4.038-5.32,6.865c-0.695,0.855-0.564,2.11,0.291,2.805c0.369,0.299,0.814,0.445,1.254,0.445
				c0.582,0,1.156-0.253,1.551-0.738c2.547-3.139,4.463-5.623,5.732-7.426l2.629,1.462c-1.664,2.259-4.197,5.349-5.297,6.657
				l-1.076,1.281l1.076,1.283c1.166,1.387,3.941,4.774,5.586,7.053l-2.598,1.529c-1.205-1.759-3.119-4.263-5.721-7.479
				c-0.691-0.857-1.945-0.99-2.803-0.296c-0.857,0.691-0.99,1.945-0.297,2.802c2.383,2.95,4.227,5.353,5.375,6.999l-1.563,0.921
				c-0.557-0.306-1.193-0.481-1.873-0.481c-2.152,0-3.895,1.745-3.895,3.895c0,2.152,1.742,3.895,3.895,3.895
				c2.145,0,3.883-1.732,3.895-3.873l1.5-0.883c0.865,1.889,2.01,4.678,3.342,8.156c0.305,0.793,1.061,1.279,1.861,1.279
				c0.236,0,0.479-0.042,0.715-0.133c1.027-0.392,1.541-1.547,1.146-2.574c-1.471-3.842-2.68-6.77-3.611-8.76l2.594-1.527
				c1.135,2.572,2.588,6.423,3.182,8.06l0.572,1.573l1.648-0.292c1.748-0.308,5.938-0.998,8.736-1.292v3.013
				c-2.184,0.178-5.363,0.598-9.506,1.255c-1.088,0.173-1.83,1.194-1.656,2.283c0.172,1.087,1.191,1.832,2.281,1.656
				c3.779-0.601,6.82-1.005,8.881-1.191v1.782c-1.137,0.681-1.9,1.919-1.9,3.341c0,2.152,1.744,3.895,3.895,3.895
				s3.895-1.743,3.895-3.895c0-1.421-0.764-2.66-1.9-3.341v-1.782c2.08,0.186,5.164,0.6,8.998,1.211
				c0.105,0.017,0.213,0.026,0.316,0.026c0.961,0,1.811-0.701,1.965-1.681c0.174-1.089-0.566-2.108-1.654-2.283
				c-4.201-0.669-7.422-1.095-9.625-1.274v-3.013c2.797,0.294,6.986,0.984,8.736,1.292l1.646,0.292l0.572-1.573
				c0.627-1.721,2.199-5.889,3.354-8.445l2.633,1.474c-1.205,2.505-2.734,6.354-3.908,9.426c-0.395,1.029,0.121,2.182,1.15,2.576
				c0.232,0.089,0.475,0.131,0.711,0.131c0.803,0,1.559-0.488,1.863-1.283c1.496-3.92,2.762-6.982,3.668-8.897l1.6,0.897
				c0.057,2.103,1.775,3.789,3.889,3.789c2.152,0,3.895-1.743,3.895-3.894C184.371,305.376,182.629,303.632,180.477,303.632z
				 M172.129,291.886c-1.252,1.524-3.295,4.049-4.719,6.031l-3.742-2.096c0.436-1.231,0.676-2.555,0.676-3.936
				c0-1.303-0.215-2.554-0.605-3.726l3.846-2.063C168.998,288.038,170.928,290.424,172.129,291.886z M162.35,274.946
				c0.76,2.03,2.094,5.495,3.156,7.743l-3.654,1.958c-1.768-2.263-4.34-3.861-7.289-4.364v-4.244
				C157.014,275.805,160.35,275.278,162.35,274.946z M142.787,274.946c2,0.332,5.336,0.859,7.787,1.092v4.244
				c-2.889,0.493-5.416,2.035-7.18,4.223l-3.664-2.035C140.775,280.22,142.051,276.911,142.787,274.946z M133.006,291.886
				c1.246-1.511,3.266-4.011,4.689-5.986l3.762,2.09c-0.428,1.221-0.664,2.531-0.664,3.896c0,1.469,0.271,2.872,0.762,4.168
				l-3.633,2.137C136.496,296.173,134.318,293.481,133.006,291.886z M142.787,308.827c-0.697-1.865-1.881-4.939-2.893-7.17
				l3.686-2.168c1.752,2.071,4.205,3.524,6.994,4v4.244C148.123,307.969,144.787,308.494,142.787,308.827z M162.35,308.827
				c-2-0.333-5.336-0.858-7.787-1.094v-4.244c2.873-0.49,5.393-2.02,7.154-4.191l3.664,2.053
				C164.342,303.599,163.08,306.876,162.35,308.827z"/>
			<path style="fill:#E8E9EC;" d="M262.354,272.547c-0.482,0-0.936,0.131-1.326,0.355l-1.025-0.574
				c0.855-1.201,2.168-2.891,3.836-4.941c0.475-0.584,0.385-1.442-0.197-1.916c-0.582-0.475-1.441-0.387-1.916,0.195
				c-1.354,1.666-3.01,3.753-4.111,5.321l-1.795-1.003c1.135-1.549,2.889-3.684,3.646-4.584l0.736-0.877l-0.736-0.877
				c-0.725-0.861-2.357-2.854-3.494-4.378l1.813-0.971c0.854,1.197,2.09,2.799,3.707,4.793c0.27,0.333,0.662,0.504,1.061,0.504
				c0.301,0,0.604-0.1,0.857-0.304c0.584-0.473,0.672-1.331,0.199-1.915c-1.434-1.77-2.592-3.257-3.402-4.377l0.977-0.523
				c0.4,0.24,0.867,0.381,1.367,0.381c1.469,0,2.662-1.192,2.662-2.661s-1.193-2.66-2.662-2.66c-1.43,0-2.59,1.126-2.654,2.536
				l-1.143,0.614c-0.623-1.267-1.537-3.466-2.641-6.346c-0.268-0.701-1.053-1.053-1.758-0.785c-0.703,0.271-1.055,1.056-0.785,1.757
				c0.838,2.195,1.945,4.973,2.783,6.66l-1.82,0.975c-0.797-1.712-1.949-4.768-2.396-5.997l-0.391-1.075l-1.127,0.201
				c-1.195,0.21-4.057,0.68-5.967,0.881v-2.058c1.857-0.152,4.482-0.538,6.58-0.869c0.742-0.118,1.25-0.818,1.129-1.561
				c-0.117-0.744-0.814-1.246-1.559-1.13c-2.621,0.417-4.73,0.701-6.15,0.826v-1.214c0.775-0.465,1.297-1.313,1.297-2.282
				c0-1.471-1.191-2.662-2.66-2.662s-2.66,1.191-2.66,2.662c0,0.968,0.521,1.816,1.299,2.282v1.214
				c-1.354-0.119-3.33-0.38-5.771-0.766c-0.744-0.119-1.439,0.393-1.559,1.136c-0.117,0.741,0.393,1.438,1.135,1.556
				c2.686,0.422,4.758,0.694,6.195,0.811v2.056c-1.912-0.201-4.773-0.671-5.969-0.881l-1.125-0.201l-0.393,1.075
				c-0.43,1.187-1.518,4.07-2.309,5.812l-1.801-1.002c0.834-1.729,1.904-4.424,2.725-6.572c0.27-0.703-0.084-1.491-0.789-1.76
				c-0.701-0.268-1.488,0.086-1.758,0.79c-1.051,2.757-1.936,4.901-2.564,6.217l-1.104-0.612c-0.041-1.431-1.213-2.578-2.656-2.578
				c-1.469,0-2.66,1.19-2.66,2.659c0,1.471,1.191,2.66,2.66,2.66c0.486,0,0.941-0.131,1.334-0.359l1.018,0.565
				c-0.828,1.158-2.068,2.757-3.635,4.689c-0.475,0.584-0.385,1.441,0.199,1.916c0.252,0.205,0.555,0.305,0.857,0.305
				c0.396,0,0.789-0.171,1.059-0.504c1.74-2.145,3.051-3.842,3.916-5.074l1.797,1c-1.139,1.542-2.867,3.654-3.619,4.546
				l-0.734,0.877l0.734,0.877c0.797,0.945,2.691,3.261,3.814,4.816l-1.773,1.042c-0.822-1.199-2.131-2.91-3.908-5.108
				c-0.471-0.585-1.33-0.675-1.914-0.202c-0.586,0.472-0.678,1.329-0.203,1.915c1.627,2.014,2.889,3.656,3.672,4.779l-1.066,0.631
				c-0.381-0.208-0.816-0.328-1.281-0.328c-1.469,0-2.66,1.192-2.66,2.66c0,1.47,1.191,2.661,2.66,2.661
				c1.465,0,2.652-1.184,2.66-2.646l1.025-0.602c0.592,1.289,1.373,3.195,2.283,5.572c0.209,0.542,0.725,0.873,1.271,0.873
				c0.162,0,0.326-0.029,0.488-0.09c0.701-0.27,1.053-1.056,0.785-1.76c-1.006-2.622-1.832-4.624-2.469-5.984l1.771-1.043
				c0.775,1.758,1.768,4.387,2.174,5.506l0.393,1.075l1.125-0.2c1.195-0.211,4.057-0.682,5.969-0.882v2.058
				c-1.492,0.124-3.664,0.411-6.496,0.859c-0.742,0.118-1.248,0.815-1.131,1.559c0.119,0.742,0.814,1.25,1.559,1.131
				c2.582-0.409,4.66-0.687,6.068-0.814v1.217c-0.777,0.465-1.299,1.314-1.299,2.283c0,1.471,1.191,2.662,2.66,2.662
				s2.66-1.191,2.66-2.662c0-0.969-0.521-1.818-1.297-2.283v-1.217c1.42,0.127,3.527,0.411,6.146,0.828
				c0.072,0.012,0.145,0.016,0.217,0.016c0.656,0,1.236-0.477,1.342-1.146c0.119-0.746-0.387-1.442-1.131-1.56
				c-2.869-0.458-5.07-0.75-6.574-0.874v-2.058c1.91,0.201,4.771,0.671,5.967,0.882l1.127,0.2l0.391-1.075
				c0.428-1.174,1.5-4.022,2.289-5.768l1.799,1.006c-0.822,1.713-1.867,4.342-2.67,6.44c-0.27,0.703,0.082,1.49,0.787,1.759
				c0.158,0.061,0.324,0.09,0.484,0.09c0.549,0,1.066-0.334,1.273-0.877c1.021-2.677,1.887-4.77,2.506-6.078l1.094,0.613
				c0.039,1.436,1.211,2.59,2.656,2.59c1.469,0,2.662-1.194,2.662-2.663C265.016,273.738,263.822,272.547,262.354,272.547z
				 M256.65,264.523c-0.855,1.039-2.252,2.766-3.225,4.119l-2.557-1.432c0.299-0.841,0.463-1.744,0.463-2.688
				c0-0.89-0.148-1.746-0.414-2.547l2.627-1.41C254.512,261.894,255.83,263.523,256.65,264.523z M249.969,252.95
				c0.52,1.386,1.432,3.753,2.158,5.288l-2.498,1.34c-1.207-1.546-2.965-2.638-4.979-2.984v-2.898
				C246.324,253.538,248.604,253.176,249.969,252.95z M236.605,252.95c1.365,0.226,3.646,0.587,5.32,0.745v2.898
				c-1.973,0.338-3.701,1.392-4.906,2.887l-2.502-1.391C235.23,256.553,236.102,254.293,236.605,252.95z M229.922,264.523
				c0.852-1.036,2.232-2.742,3.205-4.092l2.568,1.429c-0.291,0.834-0.453,1.729-0.453,2.663c0,1.002,0.186,1.961,0.52,2.846
				l-2.479,1.46C232.307,267.452,230.82,265.611,229.922,264.523z M236.605,276.096c-0.477-1.276-1.285-3.373-1.977-4.898
				l2.518-1.48c1.199,1.414,2.873,2.408,4.779,2.733v2.897C240.252,275.51,237.971,275.868,236.605,276.096z M249.969,276.096
				c-1.365-0.228-3.645-0.586-5.318-0.748v-2.897c1.963-0.337,3.684-1.381,4.887-2.864l2.504,1.401
				C251.33,272.523,250.469,274.762,249.969,276.096z"/>
			<path style="fill:#E8E9EC;" d="M274.43,408.298c-1.096,0-2.119,0.298-3.006,0.808l-2.326-1.304
				c1.941-2.723,4.916-6.556,8.699-11.208c1.076-1.322,0.875-3.267-0.449-4.345c-1.32-1.078-3.27-0.878-4.344,0.446
				c-3.072,3.778-6.828,8.512-9.324,12.069l-4.07-2.278c2.576-3.508,6.553-8.357,8.27-10.398l1.668-1.99l-1.668-1.984
				c-1.643-1.954-5.348-6.474-7.924-9.933l4.109-2.203c1.936,2.718,4.744,6.35,8.41,10.873c0.609,0.752,1.5,1.144,2.4,1.144
				c0.684,0,1.371-0.226,1.943-0.69c1.326-1.075,1.529-3.019,0.453-4.344c-3.25-4.009-5.873-7.388-7.715-9.925l2.215-1.188
				c0.908,0.547,1.967,0.866,3.104,0.866c3.332,0,6.035-2.704,6.035-6.036c0-3.331-2.703-6.033-6.035-6.033
				c-3.24,0-5.875,2.555-6.021,5.758l-2.592,1.389c-1.412-2.875-3.488-7.862-5.984-14.393c-0.609-1.593-2.393-2.39-3.99-1.781
				c-1.594,0.609-2.391,2.396-1.781,3.99c1.902,4.977,4.41,11.275,6.311,15.105l-4.129,2.212c-1.805-3.89-4.42-10.818-5.436-13.605
				l-0.885-2.437l-2.553,0.451c-2.711,0.479-9.203,1.545-13.537,2.002v-4.669c4.215-0.348,10.168-1.218,14.924-1.975
				c1.686-0.271,2.834-1.852,2.566-3.539c-0.27-1.685-1.85-2.825-3.539-2.564c-5.943,0.948-10.725,1.588-13.951,1.877v-2.758
				c1.76-1.055,2.945-2.977,2.945-5.178c0-3.334-2.703-6.034-6.035-6.034s-6.033,2.7-6.033,6.034c0,2.201,1.184,4.123,2.945,5.178
				v2.758c-3.068-0.275-7.553-0.868-13.09-1.738c-1.686-0.268-3.266,0.887-3.533,2.571c-0.264,1.686,0.889,3.267,2.574,3.532
				c6.09,0.958,10.787,1.571,14.049,1.837v4.668c-4.336-0.458-10.826-1.524-13.537-2.002l-2.553-0.451l-0.887,2.437
				c-0.977,2.688-3.445,9.228-5.238,13.181l-4.088-2.273c1.898-3.918,4.322-10.033,6.184-14.906
				c0.607-1.593-0.193-3.379-1.787-3.989c-1.592-0.61-3.379,0.192-3.986,1.785c-2.389,6.258-4.395,11.118-5.818,14.104l-2.502-1.389
				c-0.098-3.248-2.754-5.852-6.025-5.852c-3.334,0-6.035,2.703-6.035,6.034c0,3.334,2.701,6.034,6.035,6.034
				c1.104,0,2.135-0.301,3.025-0.816l2.309,1.281c-1.879,2.625-4.691,6.257-8.244,10.635c-1.076,1.325-0.873,3.27,0.451,4.347
				c0.572,0.461,1.262,0.69,1.943,0.69c0.9,0,1.793-0.393,2.402-1.145c3.945-4.862,6.916-8.712,8.881-11.508l4.076,2.268
				c-2.58,3.498-6.506,8.288-8.207,10.314l-1.668,1.984l1.668,1.99c1.805,2.147,6.105,7.395,8.652,10.926l-4.025,2.37
				c-1.865-2.724-4.832-6.606-8.861-11.588c-1.072-1.327-3.016-1.533-4.344-0.459c-1.328,1.074-1.535,3.016-0.461,4.343
				c3.695,4.569,6.551,8.293,8.328,10.843l-2.422,1.428c-0.859-0.474-1.85-0.746-2.9-0.746c-3.334,0-6.035,2.706-6.035,6.038
				c0,3.334,2.701,6.034,6.035,6.034c3.322,0,6.016-2.684,6.033-6.002l2.324-1.367c1.34,2.926,3.115,7.248,5.178,12.637
				c0.471,1.227,1.643,1.982,2.885,1.982c0.367,0,0.74-0.065,1.107-0.206c1.592-0.611,2.387-2.397,1.777-3.988
				c-2.281-5.953-4.152-10.49-5.596-13.574l4.02-2.366c1.758,3.986,4.008,9.953,4.93,12.489l0.887,2.436l2.553-0.451
				c2.711-0.479,9.201-1.547,13.537-2.005v4.67c-3.385,0.277-8.311,0.927-14.73,1.945c-1.686,0.268-2.834,1.852-2.564,3.537
				c0.266,1.684,1.844,2.836,3.533,2.565c5.855-0.931,10.57-1.559,13.762-1.847v2.762c-1.762,1.054-2.945,2.974-2.945,5.176
				c0,3.333,2.701,6.035,6.033,6.035s6.035-2.702,6.035-6.035c0-2.203-1.186-4.123-2.945-5.176v-2.762
				c3.223,0.289,8.002,0.93,13.941,1.877c0.164,0.026,0.328,0.037,0.492,0.037c1.488,0,2.803-1.084,3.045-2.603
				c0.268-1.687-0.881-3.267-2.564-3.537c-6.512-1.037-11.5-1.696-14.914-1.976v-4.67c4.334,0.458,10.826,1.526,13.537,2.005
				l2.553,0.451l0.885-2.436c0.971-2.666,3.406-9.125,5.195-13.085l4.078,2.285c-1.867,3.88-4.234,9.845-6.055,14.604
				c-0.611,1.594,0.188,3.381,1.783,3.99c0.361,0.139,0.734,0.203,1.102,0.203c1.244,0,2.416-0.755,2.887-1.988
				c2.318-6.072,4.279-10.819,5.682-13.783l2.482,1.389c0.086,3.257,2.748,5.872,6.023,5.872c3.334,0,6.035-2.702,6.035-6.036
				C280.465,411,277.764,408.298,274.43,408.298z M261.496,390.098c-1.941,2.361-5.107,6.273-7.313,9.346l-5.799-3.249
				c0.676-1.907,1.049-3.958,1.049-6.097c0-2.017-0.334-3.956-0.939-5.772l5.959-3.195
				C256.645,384.139,259.633,387.834,261.496,390.098z M246.344,363.852c1.176,3.144,3.246,8.511,4.891,11.996l-5.662,3.036
				c-2.738-3.506-6.727-5.985-11.295-6.763v-6.577C238.074,365.182,243.244,364.368,246.344,363.852z M216.033,363.852
				c3.098,0.516,8.268,1.33,12.066,1.691v6.577c-4.477,0.763-8.395,3.153-11.123,6.543l-5.678-3.155
				C212.916,372.023,214.893,366.897,216.033,363.852z M200.879,390.098c1.928-2.342,5.061-6.212,7.266-9.276l5.826,3.239
				c-0.662,1.892-1.027,3.923-1.027,6.037c0,2.275,0.42,4.451,1.18,6.459l-5.627,3.312
				C206.283,396.742,202.914,392.57,200.879,390.098z M216.033,416.347c-1.082-2.89-2.916-7.652-4.48-11.109l5.707-3.359
				c2.717,3.208,6.518,5.461,10.84,6.199v6.576C224.301,415.018,219.131,415.832,216.033,416.347z M246.344,416.347
				c-3.1-0.515-8.27-1.329-12.066-1.693v-6.576c4.453-0.759,8.355-3.129,11.084-6.493l5.68,3.179
				C249.43,408.247,247.477,413.323,246.344,416.347z"/>
			<path style="fill:#E8E9EC;" d="M380.828,299.319c-0.881,0-1.705,0.24-2.416,0.648l-1.869-1.047
				c1.561-2.189,3.949-5.269,6.99-9.008c0.865-1.062,0.703-2.625-0.359-3.49c-1.063-0.869-2.629-0.708-3.492,0.357
				c-2.469,3.035-5.488,6.841-7.494,9.699l-3.271-1.83c2.07-2.82,5.266-6.717,6.646-8.357l1.34-1.6l-1.34-1.594
				c-1.318-1.572-4.297-5.203-6.369-7.982l3.303-1.771c1.557,2.186,3.813,5.102,6.758,8.738c0.492,0.604,1.207,0.918,1.932,0.918
				c0.549,0,1.102-0.182,1.561-0.555c1.066-0.864,1.229-2.426,0.365-3.491c-2.611-3.222-4.721-5.937-6.201-7.978l1.779-0.954
				c0.732,0.439,1.582,0.696,2.496,0.696c2.678,0,4.85-2.173,4.85-4.852c0-2.677-2.172-4.848-4.85-4.848
				c-2.605,0-4.723,2.053-4.84,4.626l-2.082,1.117c-1.137-2.31-2.805-6.318-4.811-11.566c-0.49-1.281-1.924-1.922-3.207-1.433
				c-1.281,0.491-1.92,1.927-1.432,3.208c1.529,4,3.545,9.062,5.072,12.138l-3.318,1.778c-1.451-3.125-3.553-8.695-4.367-10.934
				l-0.714-1.954l-2.051,0.361c-2.18,0.385-7.395,1.241-10.879,1.609v-3.751c3.387-0.281,8.172-0.979,11.994-1.588
				c1.354-0.217,2.277-1.488,2.061-2.843c-0.215-1.354-1.484-2.27-2.842-2.061c-4.777,0.76-8.621,1.278-11.213,1.509v-2.215
				c1.416-0.848,2.367-2.393,2.367-4.161c0-2.68-2.172-4.851-4.85-4.851s-4.85,2.171-4.85,4.851c0,1.768,0.951,3.313,2.367,4.161
				v2.215c-2.467-0.222-6.07-0.697-10.52-1.397c-1.355-0.214-2.625,0.713-2.84,2.068c-0.211,1.354,0.715,2.624,2.068,2.838
				c4.895,0.77,8.67,1.262,11.291,1.476v3.751c-3.484-0.368-8.701-1.225-10.879-1.609l-2.05-0.363l-0.713,1.957
				c-0.783,2.16-2.768,7.416-4.209,10.592l-3.285-1.826c1.525-3.149,3.475-8.061,4.971-11.979c0.486-1.281-0.156-2.716-1.438-3.204
				c-1.279-0.493-2.715,0.154-3.203,1.434c-1.918,5.029-3.531,8.932-4.676,11.333l-2.01-1.115c-0.08-2.611-2.215-4.704-4.844-4.704
				c-2.678,0-4.85,2.174-4.85,4.85c0,2.68,2.172,4.85,4.85,4.85c0.889,0,1.717-0.24,2.432-0.656l1.854,1.029
				c-1.51,2.11-3.77,5.028-6.623,8.547c-0.865,1.065-0.701,2.628,0.363,3.495c0.459,0.371,1.012,0.553,1.561,0.553
				c0.725,0,1.439-0.314,1.932-0.92c3.17-3.906,5.557-7.001,7.135-9.247l3.277,1.821c-2.072,2.813-5.229,6.661-6.596,8.291
				l-1.342,1.594l1.342,1.6c1.449,1.726,4.908,5.944,6.953,8.781l-3.234,1.903c-1.5-2.188-3.883-5.306-7.123-9.311
				c-0.861-1.068-2.422-1.232-3.488-0.371c-1.068,0.863-1.234,2.424-0.371,3.491c2.969,3.673,5.264,6.666,6.693,8.714l-1.947,1.147
				c-0.689-0.38-1.486-0.599-2.332-0.599c-2.678,0-4.85,2.174-4.85,4.852c0,2.679,2.172,4.85,4.85,4.85
				c2.67,0,4.834-2.158,4.85-4.824l1.867-1.098c1.078,2.352,2.504,5.825,4.162,10.155c0.379,0.987,1.32,1.595,2.318,1.595
				c0.295,0,0.594-0.054,0.889-0.166c1.281-0.491,1.92-1.927,1.43-3.207c-1.834-4.783-3.336-8.43-4.498-10.908l3.23-1.901
				c1.414,3.204,3.221,7.999,3.961,10.038l0.713,1.957l2.053-0.363c2.178-0.383,7.395-1.241,10.879-1.609v3.752
				c-2.721,0.221-6.678,0.744-11.838,1.563c-1.354,0.214-2.277,1.488-2.063,2.844c0.215,1.352,1.484,2.278,2.842,2.06
				c4.705-0.748,8.492-1.252,11.059-1.483v2.219c-1.416,0.848-2.367,2.39-2.367,4.16c0,2.678,2.172,4.85,4.85,4.85
				s4.85-2.172,4.85-4.85c0-1.771-0.951-3.312-2.367-4.16v-2.219c2.59,0.232,6.432,0.747,11.205,1.51
				c0.131,0.018,0.264,0.029,0.395,0.029c1.197,0,2.252-0.872,2.447-2.093c0.217-1.354-0.707-2.625-2.061-2.842
				c-5.234-0.833-9.242-1.363-11.986-1.587v-3.752c3.484,0.368,8.699,1.226,10.879,1.609l2.051,0.363l0.713-1.957
				c0.779-2.144,2.736-7.334,4.174-10.517l3.277,1.837c-1.5,3.118-3.404,7.912-4.865,11.736c-0.49,1.282,0.152,2.718,1.432,3.207
				c0.291,0.112,0.592,0.163,0.887,0.163c1,0,1.941-0.606,2.32-1.598c1.863-4.88,3.438-8.693,4.566-11.076l1.992,1.117
				c0.07,2.617,2.211,4.717,4.844,4.717c2.678,0,4.85-2.173,4.85-4.85C385.678,301.492,383.506,299.319,380.828,299.319z
				 M370.434,284.691c-1.561,1.898-4.105,5.043-5.877,7.512l-4.66-2.611c0.543-1.533,0.842-3.181,0.842-4.9
				c0-1.62-0.268-3.18-0.754-4.639l4.789-2.568C366.533,279.902,368.936,282.872,370.434,284.691z M358.256,263.6
				c0.945,2.526,2.607,6.839,3.93,9.642l-4.551,2.438c-2.199-2.818-5.404-4.809-9.076-5.435v-5.285
				C351.609,264.668,355.764,264.014,358.256,263.6z M333.896,263.6c2.49,0.414,6.645,1.068,9.697,1.359v5.285
				c-3.598,0.613-6.746,2.535-8.939,5.259l-4.563-2.536C331.393,270.166,332.98,266.047,333.896,263.6z M321.717,284.691
				c1.551-1.881,4.066-4.994,5.84-7.454l4.682,2.603c-0.531,1.52-0.824,3.154-0.824,4.852c0,1.83,0.338,3.578,0.947,5.19
				l-4.521,2.661C326.061,290.03,323.354,286.68,321.717,284.691z M333.896,305.787c-0.869-2.322-2.342-6.149-3.602-8.928l4.588-2.7
				c2.184,2.578,5.236,4.39,8.711,4.981v5.285C340.541,304.719,336.387,305.373,333.896,305.787z M358.256,305.787
				c-2.492-0.414-6.646-1.068-9.697-1.361v-5.285c3.578-0.609,6.715-2.514,8.908-5.218l4.564,2.556
				C360.736,299.277,359.166,303.357,358.256,305.787z"/>
		</g>
	</g>
	<g id="snow">
	</g>
	<g id="moon">
	</g>
</g>
<g id="landscape">
	<g id="mountain">
	</g>
	<g id="desert">
	</g>
	<g id="island">
	</g>
	<g id="sea">
	</g>
	<g id="water_fall">
	</g>
	<g id="lighthouse">
	</g>
	<g id="forest">
	</g>
	<g id="city">
	</g>
	<g id="arctic">
	</g>
	<g id="road">
	</g>
</g>
<g id="creative_x2F_design">
	<g id="pallete">
	</g>
	<g id="bucket">
	</g>
	<g id="cup_with_pen">
	</g>
	<g id="pencil">
	</g>
	<g id="wacom">
	</g>
	<g id="ruler">
	</g>
	<g id="pen">
	</g>
	<g id="rollet_paper">
	</g>
	<g id="colors">
	</g>
	<g id="light_bulb">
	</g>
	<g id="standee_for_painter">
	</g>
	<g id="vector_with_arrow">
	</g>
	<g id="spray_paint">
	</g>
	<g id="adobe_illustrator">
	</g>
	<g id="adobe_ph&#x1ED1;thop">
	</g>
	<g id="&#x1EBB;aser">
	</g>
	<g id="paint_brush">
	</g>
	<g id="sketbook_with_pencil">
	</g>
	<g id="picture_frame">
	</g>
	<g id="compa">
	</g>
</g>
<g>
</g>
<g>
</g>
<g>
</g>
<g>
</g>
<g>
</g>
<g>
</g>
<g>
</g>
<g>
</g>
<g>
</g>
<g>
</g>
<g>
</g>
<g>
</g>
<g>
</g>
<g>
</g>
<g>
</g>
</svg>
