<?xml version="1.0" encoding="iso-8859-1"?>
<!-- Generator: Adobe Illustrator 19.0.0, SVG Export Plug-In . SVG Version: 6.00 Build 0)  -->
<svg version="1.1" id="Layer_1" xmlns="http://www.w3.org/2000/svg" xmlns:xlink="http://www.w3.org/1999/xlink" x="0px" y="0px"
	 viewBox="0 0 473.935 473.935" style="enable-background:new 0 0 473.935 473.935;" xml:space="preserve">
<circle style="fill:#FFCE00;" cx="236.967" cy="236.967" r="236.967"/>
<g>
	<path style="fill:#FFA300;" d="M455.121,238.285c0,2.413-1.953,4.367-4.367,4.367H349.726c-2.41,0-4.363-1.953-4.363-4.367l0,0
		c0-2.41,1.953-4.363,4.363-4.363h101.028C453.168,233.922,455.121,235.875,455.121,238.285L455.121,238.285z"/>
	<path style="fill:#FFA300;" d="M133.327,238.285c0,2.413-1.953,4.367-4.367,4.367H27.932c-2.41,0-4.363-1.953-4.363-4.367l0,0
		c0-2.41,1.953-4.363,4.363-4.363h101.028C131.374,233.922,133.327,235.875,133.327,238.285L133.327,238.285z"/>
	<path style="fill:#FFA300;" d="M239.347,454.062c-2.413,0-4.367-1.953-4.367-4.367V348.667c0-2.41,1.953-4.363,4.367-4.363l0,0
		c2.41,0,4.363,1.953,4.363,4.363v101.028C243.71,452.109,241.757,454.062,239.347,454.062L239.347,454.062z"/>
	<path style="fill:#FFA300;" d="M239.347,132.268c-2.413,0-4.367-1.953-4.367-4.367l0.004-101.028c0-2.41,1.949-4.363,4.363-4.363
		l0,0c2.413,0,4.363,1.953,4.363,4.363v101.028C243.71,130.315,241.757,132.268,239.347,132.268L239.347,132.268z"/>
	<path style="fill:#FFA300;" d="M86.768,390.863c-1.703-1.706-1.703-4.471,0-6.174l71.438-71.438c1.703-1.703,4.471-1.703,6.174,0
		l0,0c1.703,1.703,1.703,4.468,0,6.17L92.942,390.86C91.236,392.566,88.471,392.566,86.768,390.863L86.768,390.863z"/>
	<path style="fill:#FFA300;" d="M314.314,163.322c-1.71-1.706-1.71-4.468,0-6.174l71.438-71.434c1.703-1.703,4.464-1.706,6.166,0
		l0,0c1.71,1.703,1.703,4.464,0,6.166l-71.434,71.438C318.782,165.024,316.016,165.024,314.314,163.322L314.314,163.322z"/>
	<path style="fill:#FFA300;" d="M86.772,85.709c1.706-1.703,4.468-1.703,6.174,0l71.434,71.438c1.703,1.703,1.703,4.471,0,6.174l0,0
		c-1.703,1.703-4.468,1.703-6.17,0L86.776,91.883C85.07,90.177,85.07,87.412,86.772,85.709L86.772,85.709z"/>
	<path style="fill:#FFA300;" d="M314.31,313.255c1.706-1.71,4.468-1.71,6.174,0l71.434,71.438c1.703,1.703,1.706,4.464,0,6.166l0,0
		c-1.703,1.71-4.464,1.703-6.166,0l-71.438-71.434C312.608,317.719,312.608,314.958,314.31,313.255L314.31,313.255z"/>
	<path style="fill:#FFA300;" d="M392.192,334.841c-1.081,1.706-3.338,2.215-5.048,1.141l-71.558-45.212
		c-1.71-1.078-2.223-3.341-1.149-5.048l0,0c1.081-1.706,3.345-2.219,5.051-1.138l71.569,45.208
		C392.76,330.871,393.269,333.135,392.192,334.841L392.192,334.841z"/>
	<path style="fill:#FFA300;" d="M164.25,190.846c-1.081,1.703-3.341,2.215-5.048,1.134L87.64,146.779
		c-1.71-1.081-2.219-3.341-1.145-5.051l0,0c1.081-1.703,3.341-2.215,5.051-1.141l71.562,45.208
		C164.815,186.88,165.323,189.136,164.25,190.846L164.25,190.846z"/>
	<path style="fill:#FFA300;" d="M142.79,391.133c-1.706-1.078-2.215-3.338-1.141-5.048l45.216-71.562
		c1.07-1.706,3.334-2.219,5.044-1.141l0,0c1.703,1.081,2.211,3.341,1.134,5.044l-45.205,71.569
		C146.76,391.698,144.5,392.21,142.79,391.133L142.79,391.133z"/>
	<path style="fill:#FFA300;" d="M286.789,163.191c-1.706-1.078-2.219-3.341-1.141-5.048l45.208-71.562
		c1.081-1.71,3.338-2.219,5.048-1.141l0,0c1.71,1.081,2.215,3.341,1.138,5.044l-45.208,71.565
		C290.752,163.756,288.496,164.268,286.789,163.191L286.789,163.191z"/>
	<path style="fill:#FFA300;" d="M62.993,278.093c-0.445-1.972,0.79-3.933,2.761-4.378l82.566-18.634
		c1.972-0.445,3.936,0.797,4.374,2.761l0,0c0.445,1.972-0.79,3.933-2.758,4.374l-82.57,18.638
		C65.399,281.293,63.431,280.058,62.993,278.093L62.993,278.093z"/>
	<path style="fill:#FFA300;" d="M325.996,218.73c-0.453-1.972,0.793-3.929,2.761-4.374l82.566-18.634
		c1.968-0.442,3.929,0.79,4.367,2.761l0,0c0.449,1.972-0.789,3.925-2.761,4.37l-82.566,18.634
		C328.398,221.937,326.445,220.702,325.996,218.73L325.996,218.73z"/>
	<path style="fill:#FFA300;" d="M199.546,61.934c1.964-0.445,3.925,0.793,4.378,2.761l18.63,82.563
		c0.445,1.972-0.797,3.933-2.761,4.378l0,0c-1.972,0.445-3.925-0.79-4.374-2.761l-18.63-82.566
		C196.339,64.336,197.578,62.376,199.546,61.934L199.546,61.934z"/>
	<path style="fill:#FFA300;" d="M258.898,324.937c1.979-0.449,3.936,0.79,4.378,2.761l18.634,82.566
		c0.445,1.964-0.793,3.925-2.761,4.367l0,0c-1.972,0.449-3.925-0.79-4.367-2.758l-18.638-82.566
		C255.695,327.335,256.934,325.382,258.898,324.937L258.898,324.937z"/>
	<path style="fill:#FFA300;" d="M416.974,271.961c-0.382,1.983-2.29,3.289-4.281,2.911l-83.161-15.768
		c-1.983-0.378-3.293-2.286-2.919-4.277l0,0c0.382-1.979,2.294-3.289,4.281-2.907l83.172,15.764
		C416.046,268.058,417.344,269.981,416.974,271.961L416.974,271.961z"/>
	<path style="fill:#FFA300;" d="M152.074,221.738c-0.382,1.983-2.29,3.289-4.277,2.907l-83.165-15.764
		c-1.983-0.374-3.289-2.286-2.915-4.277l0,0c0.378-1.979,2.29-3.289,4.281-2.911l83.165,15.768
		C151.146,217.843,152.448,219.759,152.074,221.738L152.074,221.738z"/>
	<path style="fill:#FFA300;" d="M205.671,415.911c-1.979-0.378-3.285-2.29-2.915-4.277l15.779-83.169
		c0.37-1.979,2.282-3.289,4.273-2.907l0,0c1.976,0.378,3.282,2.29,2.904,4.277L209.948,413
		C209.57,414.983,207.658,416.285,205.671,415.911L205.671,415.911z"/>
	<path style="fill:#FFA300;" d="M255.893,151.011c-1.979-0.374-3.289-2.286-2.911-4.277l15.768-83.165
		c0.382-1.983,2.286-3.285,4.277-2.911l0,0c1.987,0.382,3.289,2.294,2.907,4.277L260.17,148.1
		C259.789,150.087,257.877,151.389,255.893,151.011L255.893,151.011z"/>
	<path style="fill:#FFA300;" d="M89.934,340.072c-1.138-1.665-0.707-3.944,0.962-5.081l69.953-47.659
		c1.673-1.134,3.955-0.703,5.085,0.965l0,0c1.138,1.673,0.707,3.948-0.962,5.081l-69.953,47.659
		C93.35,342.172,91.064,341.737,89.934,340.072L89.934,340.072z"/>
	<path style="fill:#FFA300;" d="M312.761,188.276c-1.149-1.665-0.703-3.948,0.962-5.085l69.953-47.652
		c1.673-1.138,3.948-0.703,5.078,0.965l0,0c1.141,1.669,0.703,3.94-0.965,5.078l-69.949,47.659
		C316.17,190.371,313.902,189.941,312.761,188.276L312.761,188.276z"/>
	<path style="fill:#FFA300;" d="M137.567,88.871c1.661-1.138,3.94-0.703,5.081,0.962l47.648,69.953
		c1.138,1.669,0.703,3.955-0.962,5.085l0,0c-1.673,1.141-3.94,0.703-5.081-0.962l-47.652-69.953
		C135.46,92.284,135.894,90.009,137.567,88.871L137.567,88.871z"/>
	<path style="fill:#FFA300;" d="M289.352,311.702c1.676-1.149,3.951-0.711,5.085,0.962l47.655,69.953
		c1.138,1.665,0.703,3.944-0.969,5.074l0,0c-1.665,1.149-3.94,0.707-5.07-0.958l-47.655-69.953
		C287.261,315.107,287.691,312.836,289.352,311.702L289.352,311.702z"/>
	<path style="fill:#FFA300;" d="M369.558,291.115c-0.587,1.456-2.245,2.155-3.697,1.564l-60.972-24.733
		c-1.452-0.587-2.155-2.249-1.564-3.701l0,0c0.591-1.456,2.253-2.155,3.701-1.568l60.969,24.733
		C369.453,288.002,370.149,289.659,369.558,291.115L369.558,291.115z"/>
	<path style="fill:#FFA300;" d="M175.366,212.331c-0.591,1.456-2.249,2.155-3.701,1.564l-60.969-24.733
		c-1.456-0.587-2.155-2.249-1.564-3.701l0,0c0.587-1.456,2.249-2.155,3.697-1.568l60.972,24.733
		C175.254,209.218,175.958,210.88,175.366,212.331L175.366,212.331z"/>
	<path style="fill:#FFA300;" d="M186.517,368.502c-1.456-0.591-2.155-2.249-1.564-3.701l24.729-60.969
		c0.591-1.456,2.253-2.155,3.704-1.564l0,0c1.456,0.587,2.155,2.249,1.564,3.697l-24.729,60.972
		C189.63,368.39,187.972,369.094,186.517,368.502L186.517,368.502z"/>
	<path style="fill:#FFA300;" d="M265.3,174.307c-1.456-0.591-2.155-2.253-1.564-3.704l24.737-60.969
		c0.587-1.452,2.245-2.152,3.697-1.564l0,0c1.456,0.587,2.155,2.249,1.564,3.701l-24.729,60.969
		C268.413,174.195,266.756,174.899,265.3,174.307L265.3,174.307z"/>
	<path style="fill:#FFA300;" d="M109.911,293.008c-0.606-1.448,0.067-3.113,1.512-3.727l60.598-25.624
		c1.448-0.606,3.117,0.071,3.727,1.512l0,0c0.61,1.448-0.067,3.117-1.508,3.727l-60.602,25.624
		C112.194,295.13,110.521,294.456,109.911,293.008L109.911,293.008z"/>
	<path style="fill:#FFA300;" d="M302.939,211.396c-0.614-1.448,0.064-3.113,1.508-3.723l60.606-25.62
		c1.441-0.614,3.109,0.064,3.719,1.504l0,0c0.614,1.452-0.067,3.113-1.512,3.727l-60.598,25.624
		C305.218,213.525,303.549,212.844,302.939,211.396L302.939,211.396z"/>
	<path style="fill:#FFA300;" d="M184.624,108.856c1.448-0.614,3.113,0.067,3.727,1.512l25.62,60.598
		c0.61,1.441-0.071,3.113-1.512,3.723l0,0c-1.444,0.61-3.117-0.067-3.723-1.508l-25.624-60.598
		C182.506,111.139,183.179,109.466,184.624,108.856L184.624,108.856z"/>
	<path style="fill:#FFA300;" d="M266.232,301.88c1.452-0.614,3.117,0.067,3.731,1.512l25.616,60.598
		c0.614,1.448-0.067,3.113-1.512,3.723l0,0c-1.448,0.617-3.106-0.067-3.719-1.508l-25.624-60.598
		C264.107,304.159,264.788,302.494,266.232,301.88L266.232,301.88z"/>
	<circle style="fill:#FFA300;" cx="236.967" cy="236.967" r="91.049"/>
</g>
<circle style="fill:#FFCE00;" cx="236.967" cy="236.967" r="77.395"/>
<circle style="fill:#FFA300;" cx="236.967" cy="236.967" r="43.581"/>
<circle style="fill:#FFCE00;" cx="236.967" cy="236.967" r="12.969"/>
<g>
</g>
<g>
</g>
<g>
</g>
<g>
</g>
<g>
</g>
<g>
</g>
<g>
</g>
<g>
</g>
<g>
</g>
<g>
</g>
<g>
</g>
<g>
</g>
<g>
</g>
<g>
</g>
<g>
</g>
</svg>
